<svg xmlns="http://www.w3.org/2000/svg" xmlns:xlink="http://www.w3.org/1999/xlink" preserveAspectRatio="xMidYMid" width="500" height="500" viewBox="0 0 500 500">
    <defs>
        <style>
            .cls-1 {
            fill: #499df5;
            fill-rule: evenodd;
            }
        </style>
    </defs>
    <path d="M364.216,402.891 C347.658,336.754 292.466,276.511 248.636,276.511 C194.199,276.511 148.709,336.754 135.532,402.891 L16.318,402.891 C31.793,328.460 130.691,263.005 250.404,263.005 C370.118,263.005 469.016,328.460 484.491,402.891 L364.216,402.891 ZM242.500,257.492 C143.646,257.492 63.435,211.645 62.692,154.926 L152.790,154.926 C158.761,203.629 197.178,241.953 242.500,241.953 C278.990,241.953 324.792,203.629 332.027,154.926 L422.309,154.926 C421.566,211.645 341.354,257.492 242.500,257.492 Z" class="cls-1"/>
    <path d="M303.103,149.855 C305.845,184.575 280.010,214.951 245.399,217.702 C210.787,220.452 180.506,194.535 177.764,159.815 C175.023,125.095 200.858,94.718 235.469,91.968 C270.081,89.217 300.362,115.134 303.103,149.855 Z" class="cls-1"/>
</svg>
